#tb 0: 1/3
#media_type 0: video
#codec_id 0: rawvideo
#dimensions 0: 320x240
#sar 0: 1/1
0,          5,          5,        1,   115200, 0x2d0ba5a4
0,          6,          6,        1,   115200, 0xc95a675e
0,          7,          7,        1,   115200, 0xf040bf35
0,          8,          8,        1,   115200, 0x5635daa5
0,          9,          9,        1,   115200, 0x0caf7172
0,         10,         10,        1,   115200, 0xc8ce7fb1
